<svg xmlns="http://www.w3.org/2000/svg" width="1918" height="862" viewBox="0 0 1918 862" role="img" aria-labelledby="title desc">
  <title id="title">Sentinel AI dashboard preview</title>
  <desc id="desc">Dashboard preview showing Sentinel AI security scan management metrics, recent scans, and priority guidance.</desc>
  <defs>
    <style>
      .bg { fill: #f5f7fb; }
      .nav { fill: #101828; }
      .card { fill: #ffffff; stroke: #d9dfeb; stroke-width: 1; }
      .text { fill: #0f172a; font-family: Arial, Helvetica, sans-serif; }
      .muted { fill: #58677f; font-family: Arial, Helvetica, sans-serif; }
      .light { fill: #e2e8f0; font-family: Arial, Helvetica, sans-serif; }
      .accent { fill: #0f766e; }
      .blue { fill: #2563eb; }
      .line { stroke: #d9dfeb; stroke-width: 1; }
      .icon { fill: none; stroke: currentColor; stroke-width: 2.4; stroke-linecap: round; stroke-linejoin: round; }
    </style>
  </defs>

  <rect class="bg" width="1918" height="862"/>
  <rect class="nav" width="325" height="862"/>

  <g transform="translate(24 45)" color="#f8fafc">
    <path class="icon" d="M10 1.5 18 5v6.5c0 5-3.4 9-8 10.5-4.6-1.5-8-5.5-8-10.5V5l8-3.5Z"/>
    <path class="icon" d="m7.2 11.3 2 2 4.5-5"/>
    <text class="text" x="34" y="20" fill="#f8fafc" font-size="26" font-weight="800">Sentinel AI</text>
  </g>

  <g transform="translate(39 136)" color="#cbd5e1">
    <path class="icon" d="M2 12h5l3-9 5 18 3-9h5"/>
    <text class="light" x="34" y="14" font-size="20">Dashboard</text>
  </g>
  <g transform="translate(39 198)" color="#cbd5e1">
    <circle class="icon" cx="11" cy="11" r="9"/>
    <circle class="icon" cx="11" cy="11" r="4"/>
    <path class="icon" d="M11 1v4M11 17v4M1 11h4M17 11h4"/>
    <text class="light" x="34" y="14" font-size="20">New Scan</text>
  </g>
  <g transform="translate(39 260)" color="#cbd5e1">
    <path class="icon" d="M3 11a9 9 0 1 0 3-6.7"/>
    <path class="icon" d="M3 3v6h6"/>
    <path class="icon" d="M11 7v5l4 2"/>
    <text class="light" x="34" y="14" font-size="20">History</text>
  </g>

  <g transform="translate(367 42)">
    <text class="muted" x="0" y="13" font-size="16" font-weight="700">AI PENTEST ASSISTANT</text>
    <text class="text" x="0" y="54" font-size="40" font-weight="800">Security scan boshqaruvi</text>
  </g>

  <g transform="translate(1674 46)">
    <rect class="accent" width="168" height="52" rx="8"/>
    <g transform="translate(23 16)" color="#ffffff">
      <circle class="icon" cx="10" cy="10" r="9"/>
      <circle class="icon" cx="10" cy="10" r="4"/>
      <path class="icon" d="M10 1v4M10 15v4M1 10h4M15 10h4"/>
    </g>
    <text x="55" y="33" fill="#ffffff" font-family="Arial, Helvetica, sans-serif" font-size="20" font-weight="800">New scan</text>
  </g>

  <g transform="translate(367 135)">
    <rect class="card" width="468" height="162" rx="8"/>
    <circle cx="82" cy="81" r="52" fill="none" stroke="#e6ebf4" stroke-width="13"/>
    <path d="M82 29a52 52 0 1 1-47.3 73.6" fill="none" stroke="#2563eb" stroke-width="13"/>
    <circle cx="82" cy="81" r="38" fill="#ffffff"/>
    <text class="text" x="62" y="66" font-size="30" font-weight="800">68</text>
    <text class="muted" x="66" y="120" font-size="14">/100</text>
    <text class="muted" x="160" y="71" font-size="16" font-weight="700">RISK SCORE</text>
    <text class="text" x="160" y="99" font-size="26" font-weight="800">Yuqori</text>
  </g>

  <g transform="translate(852 135)">
    <rect class="card" width="235" height="162" rx="8"/>
    <text class="muted" x="24" y="64" font-size="16">Scans</text>
    <text class="text" x="24" y="105" font-size="31" font-weight="800">8</text>
  </g>
  <g transform="translate(1104 135)">
    <rect class="card" width="234" height="162" rx="8"/>
    <text class="muted" x="24" y="64" font-size="16">Findings</text>
    <text class="text" x="24" y="105" font-size="31" font-weight="800">73</text>
  </g>
  <g transform="translate(1356 135)">
    <rect class="card" width="234" height="162" rx="8"/>
    <text class="muted" x="24" y="64" font-size="16">Last status</text>
    <text class="text" x="24" y="105" font-size="30" font-weight="800">completed</text>
  </g>

  <g transform="translate(367 330)">
    <text class="text" x="0" y="20" font-size="26" font-weight="800">Oxirgi scanlar</text>
    <g transform="translate(795 0)" color="#172033">
      <circle class="icon" cx="11" cy="11" r="9"/>
      <path class="icon" d="M11 6v6l4 2"/>
    </g>
    <rect class="card" y="42" width="818" height="406" rx="8"/>

    <g transform="translate(0 42)">
      <line class="line" x1="0" y1="68" x2="818" y2="68"/>
      <line class="line" x1="0" y1="136" x2="818" y2="136"/>
      <line class="line" x1="0" y1="203" x2="818" y2="203"/>
      <line class="line" x1="0" y1="271" x2="818" y2="271"/>
      <line class="line" x1="0" y1="338" x2="818" y2="338"/>

      <text class="text" x="90" y="42" font-size="19" font-weight="700">example.uz</text>
      <text class="text" x="692" y="42" font-size="19" font-weight="800">53</text>
      <path d="M775 24h18m-8-8 8 8-8 8" fill="none" stroke="#172033" stroke-width="2.5" stroke-linecap="round" stroke-linejoin="round"/>

      <text class="text" x="90" y="110" font-size="19" font-weight="700">company.uz</text>
      <text class="text" x="692" y="110" font-size="19" font-weight="800">35</text>
      <path d="M775 92h18m-8-8 8 8-8 8" fill="none" stroke="#172033" stroke-width="2.5" stroke-linecap="round" stroke-linejoin="round"/>

      <text class="text" x="90" y="177" font-size="19" font-weight="700">portal.uz</text>
      <text class="text" x="692" y="177" font-size="19" font-weight="800">2</text>
      <path d="M775 159h18m-8-8 8 8-8 8" fill="none" stroke="#172033" stroke-width="2.5" stroke-linecap="round" stroke-linejoin="round"/>

      <text class="text" x="90" y="245" font-size="19" font-weight="700">server.local</text>
      <text class="text" x="692" y="245" font-size="19" font-weight="800">80</text>
      <path d="M775 227h18m-8-8 8 8-8 8" fill="none" stroke="#172033" stroke-width="2.5" stroke-linecap="round" stroke-linejoin="round"/>

      <text class="text" x="90" y="312" font-size="19" font-weight="700">audit.example</text>
      <text class="text" x="692" y="312" font-size="19" font-weight="800">100</text>
      <path d="M775 294h18m-8-8 8 8-8 8" fill="none" stroke="#172033" stroke-width="2.5" stroke-linecap="round" stroke-linejoin="round"/>

      <text class="text" x="90" y="380" font-size="19" font-weight="700">demo.uz</text>
      <text class="text" x="692" y="380" font-size="19" font-weight="800">77</text>
      <path d="M775 362h18m-8-8 8 8-8 8" fill="none" stroke="#172033" stroke-width="2.5" stroke-linecap="round" stroke-linejoin="round"/>
    </g>
  </g>

  <g transform="translate(1212 331)">
    <text class="text" x="0" y="20" font-size="26" font-weight="800">Priority</text>
    <g transform="translate(606 0)" color="#172033">
      <path class="icon" d="M10 1.5 18 5v6.5c0 5-3.4 9-8 10.5-4.6-1.5-8-5.5-8-10.5V5l8-3.5Z"/>
      <path class="icon" d="M10 7v5M10 16h.01"/>
    </g>
    <rect class="card" y="26" width="629" height="179" rx="8"/>
    <text class="text" x="24" y="72" font-size="21">Internetga ochiq DB, Redis, Elasticsearch, Telnet va sertifikat</text>
    <text class="text" x="24" y="105" font-size="21">muammolari yuqori ustuvorlikda ko'riladi. Header hardening</text>
    <text class="text" x="24" y="138" font-size="21">masalalari risk scorega qo'shiladi va hisobotda remediation bilan</text>
    <text class="text" x="24" y="171" font-size="21">chiqadi.</text>
  </g>
</svg>
